<svg height='100px' width='100px'  fill="#26666d" xmlns:dc="http://purl.org/dc/elements/1.1/" xmlns:cc="http://creativecommons.org/ns#" xmlns:rdf="http://www.w3.org/1999/02/22-rdf-syntax-ns#" xmlns:svg="http://www.w3.org/2000/svg" xmlns="http://www.w3.org/2000/svg" xmlns:sodipodi="http://sodipodi.sourceforge.net/DTD/sodipodi-0.dtd" xmlns:inkscape="http://www.inkscape.org/namespaces/inkscape" version="1.1" x="0px" y="0px" viewBox="0 0 100 100"><g transform="translate(0,-952.36218)"><path style="font-size:medium;font-style:normal;font-variant:normal;font-weight:normal;font-stretch:normal;text-indent:0;text-align:start;text-decoration:none;line-height:normal;letter-spacing:normal;word-spacing:normal;text-transform:none;direction:ltr;block-progression:tb;writing-mode:lr-tb;text-anchor:start;baseline-shift:baseline;opacity:1;color:#000000;fill:#26666d;fill-opacity:1;stroke:none;stroke-width:3.99999951999999980;marker:none;visibility:visible;display:inline;overflow:visible;enable-background:accumulate;font-family:Sans;-inkscape-font-specification:Sans" d="M 50 6 C 25.72316 6 6 25.72314 6 50 C 6 74.2768 25.72316 94 50 94 C 74.27684 94 94 74.2768 94 50 C 94 25.72314 74.27684 6 50 6 z M 50 10 C 72.115086 10 90 27.8849 90 50 C 90 62.70416 84.086998 74.023564 74.875 81.34375 C 73.004928 71.096827 68.131585 62.500167 61.96875 57.40625 C 65.655618 54.106651 68 49.319693 68 44 C 68 34.08256 59.917435 26 50 26 C 40.082565 26 32 34.08256 32 44 C 32 49.319693 34.344382 54.106651 38.03125 57.40625 C 31.868415 62.500167 26.995072 71.096827 25.125 81.34375 C 15.913002 74.023564 10 62.70416 10 50 C 10 27.8849 27.884914 10 50 10 z M 50 30 C 57.755675 30 64 36.24432 64 44 C 64 51.7556 57.755666 58 50 58 C 42.244334 58 36 51.7556 36 44 C 36 36.24432 42.244325 30 50 30 z M 41.40625 59.8125 C 43.965254 61.213148 46.885623 62 50 62 C 53.114377 62 56.034746 61.213148 58.59375 59.8125 C 64.481715 64.258596 69.696322 73.17992 71.21875 83.90625 C 65.071021 87.757167 57.802586 90 50 90 C 42.197414 90 34.928979 87.757167 28.78125 83.90625 C 30.303678 73.17992 35.518284 64.258596 41.40625 59.8125 z " transform="translate(0,952.36218)"></path></g></svg>